<?xml version="1.0"?>
<svg xmlns="http://www.w3.org/2000/svg" fill="#fff" viewBox="0 0 24 24" width="25px" height="25px">    <path fill="#fff" d="M 11.894531 2.0292969 C 11.278531 2.0292969 10.672375 2.2559375 10.234375 2.7109375 L 2.8808594 10.349609 C 0.093859375 13.176609 4.6797969 12.938766 6.3417969 14.009766 C 7.1087969 14.515766 3.8791094 15.167938 4.5371094 15.835938 C 5.1791094 16.507937 8.4136875 17.122438 9.0546875 17.773438 C 9.6966875 18.441437 7.7504844 19.152313 8.3964844 19.820312 C 9.0214844 20.488312 10.516109 19.856953 10.787109 21.376953 C 10.864109 21.818953 11.302953 22 11.876953 22 C 12.767953 22 13.985688 21.562516 14.679688 20.978516 C 15.391687 20.364516 13.446891 20.364406 14.087891 19.691406 C 14.662891 19.102406 15.212891 18.841687 15.712891 18.679688 C 16.608891 18.384687 17.333891 18.408688 17.712891 17.429688 C 18.033891 16.615687 15.282625 16.034719 16.015625 15.511719 C 17.766625 14.262719 24.195516 13.628047 21.228516 10.623047 L 13.609375 2.7109375 C 13.136375 2.2559375 12.510531 2.0292969 11.894531 2.0292969 z M 11.894531 4.0292969 C 11.951531 4.0292969 12.092078 4.0406719 12.205078 4.1386719 L 17.25 9.375 L 16 10 L 15 9 L 13 10 L 11 8 L 9 10 L 6 10 L 11.675781 4.0976562 C 11.715781 4.0556563 11.800531 4.0292969 11.894531 4.0292969 z M 8.4394531 14.070312 C 8.5764531 14.070312 11.718563 14.593266 12.851562 15.197266 C 13.363563 15.471266 13.460734 15.762297 12.677734 16.029297 C 12.653734 16.037297 12.619797 16.037969 12.591797 16.042969 C 12.547797 16.050969 12.506125 16.0615 12.453125 16.0625 C 11.940125 16.0685 11.025687 15.753094 10.179688 15.371094 C 10.177687 15.370094 10.175828 15.368188 10.173828 15.367188 C 10.044828 15.308188 9.9169688 15.2475 9.7929688 15.1875 C 9.7669688 15.1745 9.7417969 15.163391 9.7167969 15.150391 C 9.6197969 15.102391 9.5255937 15.053859 9.4335938 15.005859 C 9.3895937 14.982859 9.3466875 14.9605 9.3046875 14.9375 C 9.2366875 14.9005 9.1694688 14.862172 9.1054688 14.826172 C 9.0524687 14.796172 9.0001719 14.765328 8.9511719 14.736328 C 8.9041719 14.708328 8.8613594 14.68225 8.8183594 14.65625 C 8.7633594 14.62225 8.7101094 14.587688 8.6621094 14.554688 C 8.6321094 14.533687 8.605125 14.514141 8.578125 14.494141 C 8.530125 14.460141 8.4852656 14.426531 8.4472656 14.394531 C 8.4272656 14.377531 8.4115312 14.363656 8.3945312 14.347656 C 8.3615313 14.317656 8.3295937 14.289672 8.3085938 14.263672 C 8.2955938 14.247672 8.2912031 14.234703 8.2832031 14.220703 C 8.2702031 14.199703 8.2578594 14.177156 8.2558594 14.160156 C 8.2538594 14.142156 8.2643906 14.130187 8.2753906 14.117188 C 8.2813906 14.109188 8.2819687 14.09975 8.2929688 14.09375 C 8.3219687 14.07875 8.3694531 14.070312 8.4394531 14.070312 z M 20.533203 16.507812 C 19.860328 16.534437 19.175 16.900578 19 17.580078 C 19 18.026078 22.167187 18.281609 21.992188 17.474609 C 21.865687 16.794609 21.206078 16.481188 20.533203 16.507812 z M 7.0273438 18.005859 C 5.8344688 17.921859 4.3054531 18.826547 5.3457031 19.716797 C 6.2307031 20.492797 7.57 19.546078 8 18.455078 C 7.78475 18.170328 7.4249687 18.033859 7.0273438 18.005859 z M 18.234375 19 C 17.618375 19.633 18.342312 20.296375 18.945312 19.859375 C 19.105313 19.739375 18.930375 19.151 18.234375 19 z"/></svg>
