<svg id="Layer_1" xmlns="http://www.w3.org/2000/svg" xmlns:xlink="http://www.w3.org/1999/xlink" viewBox="0 0 1096.5 1124.2" enable-background="new 0 0 1096.5 1124.2" width="2438" height="2500"><style>.st0{enable-background:new}.st1{opacity:.783}.st2{opacity:.576;enable-background:new}.st3{fill:none}.st4,.st5{opacity:.67;fill:url(#SVGID_1_);enable-background:new}.st5{opacity:.505;fill:url(#SVGID_2_)}.st6{fill:url(#SVGID_3_)}.st7,.st8{enable-background:new}.st7{fill:url(#SVGID_4_);opacity:.217}.st8{opacity:.276;filter:url(#l)}.st9{fill:url(#SVGID_5_)}.st10,.st11{enable-background:new}.st10{fill:url(#SVGID_6_);opacity:.453}.st11{opacity:.512;filter:url(#o)}.st12{fill:url(#SVGID_7_)}.st13,.st14{enable-background:new}.st13{fill:url(#SVGID_8_);opacity:.286}.st14{opacity:.621;filter:url(#r)}.st15{fill:url(#SVGID_9_)}.st16{filter:url(#t)}.st17{fill:url(#SVGID_10_)}.st18{opacity:.286;fill:url(#SVGID_11_);enable-background:new}.st19{fill:url(#SVGID_12_)}.st20{fill:url(#SVGID_13_)}.st21{fill:url(#SVGID_14_)}.st22{opacity:.286;fill:url(#SVGID_15_);enable-background:new}.st23{fill:url(#SVGID_16_)}.st24{opacity:.616;filter:url(#w);enable-background:new}.st25{fill:url(#SVGID_17_)}.st26{fill:none;stroke:url(#SVGID_18_);stroke-width:1.004}.st27{opacity:.325;filter:url(#A);enable-background:new}.st28{fill:url(#SVGID_19_)}.st29{fill:url(#SVGID_20_)}.st30{opacity:.478;filter:url(#D);enable-background:new}.st31{fill:url(#SVGID_21_)}.st32{opacity:.586;fill:#fff}.st32,.st33,.st34{enable-background:new}.st33{fill:url(#SVGID_22_);opacity:.251}.st34{opacity:.363;filter:url(#F)}.st35{fill:url(#SVGID_23_)}</style><filter color-interpolation-filters="sRGB" height="1.331" id="w" width="1.152" x="-.076" y="-.166"><feGaussianBlur stdDeviation=".665"/></filter><filter color-interpolation-filters="sRGB" height="1.946" id="t" width="1.14" x="-.07" y="-.473"><feGaussianBlur stdDeviation=".821"/></filter><filter color-interpolation-filters="sRGB" height="1.556" id="r" width="1.171" x="-.085" y="-.278"><feGaussianBlur stdDeviation=".565"/></filter><filter color-interpolation-filters="sRGB" height="1.351" id="o" width="1.149" x="-.074" y="-.175"><feGaussianBlur stdDeviation="2.12"/></filter><filter color-interpolation-filters="sRGB" height="1.228" id="l" width="1.156" x="-.078" y="-.114"><feGaussianBlur stdDeviation="1.958"/></filter><filter color-interpolation-filters="sRGB" id="F"><feGaussianBlur stdDeviation="2.77"/></filter><filter color-interpolation-filters="sRGB" id="D"><feGaussianBlur stdDeviation="1.241"/></filter><filter color-interpolation-filters="sRGB" height="1.245" id="A" width="1.165" x="-.083" y="-.122"><feGaussianBlur stdDeviation="3.687"/></filter><g transform="matrix(.99658 0 0 .99627 .22 -1.598)" class="st0"><g class="st1"><path d="M448 47.5L47.6 457.7C-104 609.3 145.8 596.7 236.2 654c41.8 27.2-134.1 62.2-98.2 98.2 35 36 210.9 69 245.9 104 35 36-71 73.9-36 109.8 34 36 115.7 1.9 130.2 83.6 10.7 60.3 149.7 30.1 211.9-21.4 38.9-33-67.1-33-32.1-69 87.5-88.4 165.2-39.9 197.3-121.5 17.5-43.7-132.2-74.8-92.3-103 95.3-67.1 445.2-101.1 283.8-262.4l-415-424.8C580.2-1.1 495.6-1.1 448 47.5zm459.7 790.2c0 20.4 158.4 32.1 149.7-4.9-12.6-62.1-132.2-57.3-149.7 4.9zM232.2 945.6c36 31.1 90.4-6.8 107.9-50.5-35-45.7-164.2 2.9-107.9 50.5zm656.1-65.1c-44.7 40.8 7.8 83.6 51.5 55.4 11.7-7.8-1-45.7-51.5-55.4z"/><path class="st2" d="M448 57L47.6 467.2c-151.6 151.6 98.2 139 188.6 196.3 41.8 27.2-134.1 62.2-98.2 98.2 35 36 210.9 69 245.9 104 35 36-71 73.9-36 109.8 34 36 115.7 1.9 130.2 83.6 10.7 60.3 149.7 30.1 211.9-21.4 38.9-33-67.1-33-32.1-69 87.5-88.4 165.2-39.9 197.3-121.5 17.5-43.7-132.2-74.8-92.3-103 95.3-67.1 445.2-101.1 283.8-262.4L631.7 57C580.2 8.4 495.6 8.4 448 57zm459.7 790.2c0 20.4 158.4 32.1 149.7-4.9-12.6-62.1-132.2-57.3-149.7 4.9zM232.2 955.1c36 31.1 90.4-6.8 107.9-50.5-35-45.7-164.2 2.9-107.9 50.5zM888.3 890c-44.7 40.8 7.8 83.6 51.5 55.4 11.7-7.8-1-45.7-51.5-55.4z"/></g><path d="M448 38.1L47.6 448.2c-151.6 151.6 98.2 139 188.6 196.3 41.8 27.2-134.1 62.2-98.2 98.2 35 36 210.9 69 245.9 104 35 36-71 73.9-36 109.8 34 36 115.7 1.9 130.2 83.6 10.7 60.3 149.7 30.1 211.9-21.4 38.9-33-67.1-33-32.1-69 87.5-88.4 165.2-39.9 197.3-121.5 17.5-43.7-132.2-74.8-92.3-103 95.3-67.1 445.2-101.1 283.8-262.4L631.7 38c-51.5-48.5-136.1-48.5-183.7.1zm459.7 790.2c0 20.4 158.4 32.1 149.7-4.9-12.6-62.2-132.2-57.3-149.7 4.9zM232.2 936.2c36 31.1 90.4-6.8 107.9-50.5-35-45.8-164.2 2.8-107.9 50.5zM888.3 871c-44.7 40.8 7.8 83.6 51.5 55.4 11.7-7.7-1-45.7-51.5-55.4z"/><path id="H" class="st3" d="M448 38.1L47.6 448.2c-151.6 151.6 98.2 139 188.6 196.3 41.8 27.2-134.1 62.2-98.2 98.2 35 36 210.9 69 245.9 104 35 36-71 73.9-36 109.8 34 36 115.7 1.9 130.2 83.6 10.7 60.3 149.7 30.1 211.9-21.4 38.9-33-67.1-33-32.1-69 87.5-88.4 165.2-39.9 197.3-121.5 17.5-43.7-132.2-74.8-92.3-103 95.3-67.1 445.2-101.1 283.8-262.4L631.7 38c-51.5-48.5-136.1-48.5-183.7.1zm459.7 790.2c0 20.4 158.4 32.1 149.7-4.9-12.6-62.2-132.2-57.3-149.7 4.9zM232.2 936.2c36 31.1 90.4-6.8 107.9-50.5-35-45.8-164.2 2.8-107.9 50.5zM888.3 871c-44.7 40.8 7.8 83.6 51.5 55.4 11.7-7.7-1-45.7-51.5-55.4z"/><linearGradient id="SVGID_1_" gradientUnits="userSpaceOnUse" x1="753.624" y1="1642.999" x2="731.505" y2="1622.999" gradientTransform="matrix(9.5948 0 0 -9.5918 -6338.278 16066.703)"><stop offset="0" stop-color="#c0cdf9"/><stop offset="1" stop-color="#07092d" stop-opacity=".288"/></linearGradient><path class="st4" d="M448.9 42.8L52.2 449.1C-97.9 599.3 149.5 586.7 239 643.5c41.4 27-132.9 61.6-97.2 97.2 34.7 35.6 208.9 68.4 243.6 103 34.7 35.6-70.3 73.2-35.6 108.8 33.7 35.6 114.6 1.9 129 82.8 10.6 59.7 148.3 29.8 209.9-21.2 38.5-32.7-66.4-32.7-31.8-68.4 86.6-87.6 163.7-39.5 195.4-120.3 17.3-43.3-130.9-74.1-91.5-102.1 94.4-66.4 441-100.1 281.1-259.9l-411-420.6c-51.1-48.2-134.8-48.2-182 0zm-95.3 622.9c8.7 0 296.5 38.5 185.8 68.4-42.4 11.5-236.8-68.4-185.8-68.4zm550.7 159.8c0 20.2 156.9 31.8 148.3-4.8-12.5-61.6-131-56.8-148.3 4.8zM235.2 932.4c35.6 30.8 89.5-6.7 106.9-50.1-34.7-45.2-162.8 2.9-106.9 50.1zM885 867.9c-44.3 40.4 7.7 82.8 51 54.9 11.6-7.8-.9-45.3-51-54.9z"/><linearGradient id="SVGID_2_" gradientUnits="userSpaceOnUse" x1="689.457" y1="1649.639" x2="714.687" y2="1624.409" gradientTransform="matrix(9.6864 0 0 -9.6834 -6413.005 16207.014)"><stop offset="0" stop-color="#fff"/><stop offset="1" stop-color="#fff" stop-opacity="0"/></linearGradient><path class="st5" d="M83.2 471c-108.9 107.9 82.4 77.5 229.5 135.4L616.8 71.7c-46.1-47.1-105-43.2-147.1 0L83.2 471z"/><linearGradient id="SVGID_3_" gradientUnits="userSpaceOnUse" x1="706.25" y1="1654.245" x2="736.25" y2="1624.245" gradientTransform="matrix(9.6864 0 0 -9.6834 -6413.005 16207.014)"><stop offset="0" stop-color="#fff"/><stop offset="1" stop-color="#fff" stop-opacity="0"/></linearGradient><path class="st6" d="M607.4 67.2l158.4 161.3c14.6 14.6 14.6 44.7 5.8 53.5l-78.7-64.1-15.6 94.3-65.1-35-105.9 67.1-35-140.9L415 325.8l-140.9-1c-27.2 0-23.3-28.2 4.9-56.4 55.4-61.2 163.3-165.2 197.3-201.2 34.9-36 96.1-35 131.1 0z"/><radialGradient id="SVGID_4_" cx="751.027" cy="1499.38" r="30.6" gradientTransform="matrix(8.055 0 0 -5.39 -5689.886 9107.176)" gradientUnits="userSpaceOnUse"><stop offset="0" stop-color="#fff"/><stop offset="1" stop-color="#fff" stop-opacity="0"/></radialGradient><path class="st7" d="M390 829.4s17.2 26.3 15.4 38.6c-3.4 24.2-55.7 36.3-44.1 57.9 11.4 21.3 52.6 9.2 87.2 31.5 34.4 22.2 25.2 67.4 50.2 78.8 48.8 22.2 177-38.3 170.5-37-6.4 1.3-126.5 26.2-153.5 4.4-30.8-24.9-39.7-42.4-62.4-57.1-21.3-13.8-51.2-19.5-58.2-30.8s14-25.9 15.4-47.7c.9-13.1-20.5-38.6-20.5-38.6z"/><g class="st8"><radialGradient id="SVGID_5_" cx="792.519" cy="1464.667" r="30.6" gradientTransform="matrix(10.2775 0 0 -6.8772 -7655.078 11104.272)" gradientUnits="userSpaceOnUse"><stop offset="0" stop-color="#fff"/><stop offset="1" stop-color="#fff" stop-opacity="0"/></radialGradient><path class="st9" d="M390 829.4s17.2 26.3 15.4 38.6c-3.4 24.2-55.7 36.3-44.1 57.9 11.4 21.3 52.6 9.2 87.2 31.5 34.4 22.2 25.2 67.4 50.2 78.8 48.8 22.2 177-38.3 170.5-37-212.8.8-173.1-54-255.2-90.1-11.9-5.2-5-19.4-3.5-41.2.9-13-20.5-38.5-20.5-38.5z"/></g><radialGradient id="SVGID_6_" cx="778.588" cy="1812.487" r="34.25" gradientTransform="matrix(5.1304 0 0 -2.1713 -3103.88 4584.774)" gradientUnits="userSpaceOnUse"><stop offset="0" stop-color="#fff"/><stop offset="1" stop-color="#fff" stop-opacity="0"/></radialGradient><path class="st10" d="M751.6 717.5c191-70.3 252.4-79.9 315.3-142.9-72.9 61.5-227 94.5-352.6 149.3l37.3-6.4z"/><g class="st11"><radialGradient id="SVGID_7_" cx="785.863" cy="1798.854" r="34.25" gradientTransform="matrix(5.1304 0 0 -2.1713 -3103.88 4575.764)" gradientUnits="userSpaceOnUse"><stop offset="0" stop-color="#fff"/><stop offset="1" stop-color="#fff" stop-opacity="0"/></radialGradient><path class="st12" d="M751.6 708.4C1066.2 597 1013 597.6 1066.9 565.6 966.9 603.9 780 608 714.3 714.9l37.3-6.5z"/></g><linearGradient id="SVGID_8_" gradientUnits="userSpaceOnUse" x1="798.267" y1="1563.178" x2="798.392" y2="1556.866" gradientTransform="matrix(5.1304 0 0 -5.1288 -3110.314 8795.08)"><stop offset="0" stop-color="#fff"/><stop offset="1" stop-color="#fff" stop-opacity="0"/></linearGradient><path class="st13" d="M1026.4 797.6c0 6.9-18.3 12.5-40.9 12.5s-40.9-5.6-40.9-12.6S963 785 985.5 785c22.6 0 40.9 5.6 40.9 12.6z"/><g class="st14"><linearGradient id="SVGID_9_" gradientUnits="userSpaceOnUse" x1="845.613" y1="1475.272" x2="845.613" y2="1470.822" gradientTransform="matrix(6.9079 0 0 -11.0467 -4855.882 17070.723)"><stop offset="0" stop-color="#fff"/><stop offset="1" stop-color="#fff" stop-opacity="0"/></linearGradient><path class="st15" d="M1040.5 812.1c0 14.9-24.6 27-55 27s-55-12.1-55-27 24.6-27 55-27 55 12 55 27z"/></g><g class="st16"><radialGradient id="SVGID_10_" cx="796.619" cy="2495.754" r="14.093" gradientTransform="matrix(5.1304 0 0 -.7578 -3103.88 2723.884)" gradientUnits="userSpaceOnUse"><stop offset="0" stop-color="#fff"/><stop offset="1" stop-color="#fff" stop-opacity="0"/></radialGradient><path class="st17" d="M910.6 827.1C930 845 1038 854.2 1055.7 822c-34.7 24.5-111.8 15.9-145.1 5.1z"/></g><linearGradient id="SVGID_11_" gradientUnits="userSpaceOnUse" x1="773.805" y1="1628.624" x2="773.93" y2="1622.312" gradientTransform="matrix(1.9785 -1.0031 -2.3194 -4.5745 3135.377 9102.234)"><stop offset="0" stop-color="#fff"/><stop offset="1" stop-color="#fff" stop-opacity="0"/></linearGradient><path class="st18" d="M910.9 887c4 7.8 1.4 17.1-5.7 20.7-7.1 3.6-16.1.2-20.1-7.6s-1.4-17.1 5.7-20.7c7.2-3.7 16.2-.3 20.1 7.6z"/><g class="st14"><linearGradient id="SVGID_12_" gradientUnits="userSpaceOnUse" x1="827.447" y1="1505.658" x2="827.447" y2="1501.208" gradientTransform="matrix(2.664 -1.3507 -4.9955 -9.8526 6199.692 16818.2)"><stop offset="0" stop-color="#fff"/><stop offset="1" stop-color="#fff" stop-opacity="0"/></linearGradient><path class="st19" d="M918.6 890.4c5.9 11.7 2.3 25.4-8.1 30.7-10.4 5.3-23.7.1-29.6-11.6-5.9-11.7-2.3-25.4 8.1-30.7 10.4-5.3 23.7-.1 29.6 11.6z"/></g><g class="st16"><radialGradient id="SVGID_13_" cx="772.157" cy="2938.691" r="14.094" gradientTransform="matrix(1.9785 -1.0031 -.3427 -.6759 392.324 3686.019)" gradientUnits="userSpaceOnUse"><stop offset="0" stop-color="#fff"/><stop offset="1" stop-color="#fff" stop-opacity="0"/></radialGradient><path class="st20" d="M884.1 923.2c15.6 12.2 74.3 13.8 52-21.7 5.8 27.8-34.3 24.8-52 21.7z"/></g><radialGradient id="SVGID_14_" cx="657.8" cy="1808.476" r="22.75" gradientTransform="matrix(5.1304 0 0 -2.0878 -3103.88 4547.263)" gradientUnits="userSpaceOnUse"><stop offset="0" stop-color="#fff" stop-opacity=".33"/><stop offset="1" stop-color="#fff" stop-opacity="0"/></radialGradient><path class="st21" d="M159.6 739.3c0-3.2 200 60.9 234.2 95.2-28.2-27.5-170.7-90.7-192.4-91.4-21.7-.6-39.2-2.5-41.8-3.8z"/><linearGradient id="SVGID_15_" gradientUnits="userSpaceOnUse" x1="845.471" y1="1672.415" x2="845.596" y2="1666.103" gradientTransform="matrix(4.5097 -.9901 -1.1993 -3.5693 -1538.182 7677.444)"><stop offset="0" stop-color="#fff"/><stop offset="1" stop-color="#fff" stop-opacity="0"/></linearGradient><path class="st22" d="M309.8 876.7c1.6 4.8-13.1 12.3-33 16.6s-37.2 4-38.9-.8 13.1-12.3 33-16.6 37.3-4 38.9.8z"/><g class="st14"><linearGradient id="SVGID_16_" gradientUnits="userSpaceOnUse" x1="880.671" y1="1525.99" x2="880.671" y2="1521.54" gradientTransform="matrix(6.0721 -1.3331 -2.5831 -7.6877 -1137.49 13773.514)"><stop offset="0" stop-color="#fff"/><stop offset="1" stop-color="#fff" stop-opacity="0"/></linearGradient><path class="st23" d="M325.6 884.1c3.5 10.4-15.3 23.6-42 29.4s-51.2 2.2-54.7-8.2c-3.5-10.4 15.3-23.6 42-29.4s51.2-2.2 54.7 8.2z"/></g><g class="st24"><radialGradient id="SVGID_17_" cx="733.409" cy="1812.861" r="10.469" gradientTransform="matrix(6.08 -1.6846 -.6301 -2.2741 -3042.794 6296.068)" gradientUnits="userSpaceOnUse"><stop offset="0" stop-color="#fff"/><stop offset="1" stop-color="#fff" stop-opacity="0"/></radialGradient><path class="st25" d="M223.6 909.2s10.8 29.1 40.5 30.6c30.1 1.5 64.4-36.1 67.2-49.5-5.1 11.6-33.9 46.5-71.1 46-21-.3-36.6-27.1-36.6-27.1z"/></g><radialGradient id="SVGID_18_" cx="763.461" cy="1625.523" r="54.783" gradientTransform="matrix(16.6815 0 0 -16.4132 -12148.69 26809.488)" gradientUnits="userSpaceOnUse"><stop offset="0" stop-color="#fff"/><stop offset="1" stop-color="#fff" stop-opacity="0"/></radialGradient><path xlink:href="#H" class="st26" d="M538.5 15.9c-30.1 0-59.6 10.9-80.5 32.2l-400.4 410c-36.6 36.6-45.4 60.6-43.1 74.1C15.6 539 19 544.9 26 551c7.1 6.2 17.8 12.2 30.7 17.6 25.8 10.8 60.4 19.5 94.5 28.9 34 9.3 67.4 19.2 92.6 35.2 3.9 2.5 7.5 5.6 10 10s3.4 10.3 2.4 15.2c-2 9.8-8.1 15-14.3 19.7-12.4 9.4-29.4 17.2-46.5 25.5s-34.3 16.7-42.8 23.7c-4.3 3.5-5.8 6.6-5.8 6.4.1-.2-1.1-2.7.9-.6 5.4 5.5 22.1 14.9 43.4 23.4s47.4 17 73.8 25.5 53.1 17 75.6 25.8c22.6 8.8 41 17 53.2 29.2 6 6.2 10.3 14 11.2 21.9.9 7.9-1.2 15.3-4.2 21.6-6 12.5-15.7 22-24.6 31.3-8.9 9.2-16.9 18.1-19.8 24-1.4 3-1.7 4.9-1.5 6.1.1 1.2.3 2.4 3 5.2l.3.3c11.6 12.3 36.8 14 65.3 20.7 14.2 3.3 29.1 8.4 41.9 19.4 12.8 11.1 22.4 27.9 26.4 50.7 1.7 9.7 6.8 14.4 19.1 18.2s31 4.5 51.6 1.5c41.2-6 90-26.2 118.2-49.5 1.7-1.5 1.3-1.1 1.8-1.8-1.9-1.4-6.3-4.2-13.7-7.9-8.7-4.3-18.9-8.4-26.7-18.2-3.9-4.9-6.6-12.7-5.5-20.4 1.1-7.6 5.3-14 10.9-19.7 46.1-46.7 91.6-57.8 125.8-66.8 17.1-4.5 31.4-8.7 42.2-15.5 10.8-6.8 19.3-16.2 26.4-34.3.8-2 .8-2.5-.3-4.9-1.1-2.3-3.9-6-8.5-10-9.1-8-24.4-16.5-39.5-24.9-15.1-8.4-29.7-16.2-40.4-26.1-5.3-5-10.9-11.2-11.5-20.7-.6-9.5 5.6-18 12.8-23.1 26.7-18.8 67-33.1 110.9-48.3 43.8-15.2 91-30.9 129.4-48.9 38.4-18 66.6-38.7 75.6-59.5 4.5-10.4 5.3-21 .6-34.6-4.7-13.6-15.5-30.3-34.6-49.5L622 48.4l-.3-.3c-22.9-21.5-53.3-32.2-83.2-32.2zM985 793.5c-25.6.9-49.2 12.6-59.2 31 2.9 1.1 5.4 2.3 10 3.3 13.4 3.1 32 5.1 50.4 5.5 18.4.4 36.8-1.1 48-4.3 4.9-1.4 7.5-2.7 8.8-3.6-2.5-10.6-8.4-18.1-18.5-23.7-10.5-5.8-24.9-8.8-39.5-8.2zm-685.3 88c-20.3-1.4-45.8 6.7-58.3 16.7-6.2 5-8.9 9.7-9.1 12.8-.2 3.1.8 7.2 9.1 14.3v.3c13.2 11.4 28 10.2 45 .9 14.2-7.8 26.8-22.4 35.2-37.7-6.5-4.3-14.1-6.8-21.9-7.3zm592.9 6.1c-4.4 5.5-6.7 10.7-7 14.3-.4 5 1 8.8 4.9 12.5 7.2 6.8 22.7 9.7 38.6 1.2-.5-3-1.6-5.8-3.3-8.2-4.9-7.2-16.3-14.9-33.2-19.8z"/><g><g class="st27"><linearGradient id="SVGID_19_" gradientUnits="userSpaceOnUse" x1="650.417" y1="1573.592" x2="708.417" y2="1558.256" gradientTransform="matrix(4.7299 0 0 -4.7284 -2745.485 8224.994)"><stop offset="0" stop-color="#fff"/><stop offset="1" stop-color="#fff" stop-opacity="0"/></linearGradient><path class="st28" d="M318.9 658c-24.2 7.1-102.5 36.7-91.4 59.3 10.7 21.7 192.7 30.4 220.7 94.9 12.2 28.1-28 49.4-17.8 78.3 7.8 22.3 68.4 78.3 106.7 104.7 30.1 20.8 69.5-16.7 53.5-47.8-25.6-49.5 87.5-110.1 138.8-137.6 29.9-16.1-61.7-94.9-61.7-94.9L318.9 658z"/></g><linearGradient id="SVGID_20_" gradientUnits="userSpaceOnUse" x1="708.637" y1="1605.906" x2="705.456" y2="1598.617" gradientTransform="matrix(9.6864 0 0 -9.6834 -6413.005 16207.014)"><stop offset="0" stop-color="#eeeeec"/><stop offset="1" stop-color="#eeeeec" stop-opacity="0"/></linearGradient><path class="st29" d="M327.9 679.9c21.7 15.9 64.5 6.3 90.2 17.9 61.7 27.8 137.6 58.8 123.6 3.9l-15.7 13-.3-24.9-36.5 8.9S460.9 676 448 668.5c-2.7-1.6-16.6 12.6-16.6 12.6l-2.5-15c-17.2-1.8-34.4-2.7-51.7-2.6-37.6.4-63.1 6.3-49.3 16.4z"/><g class="st30"><radialGradient id="SVGID_21_" cx="785.736" cy="1483.588" r="22.466" gradientTransform="matrix(6.3925 0 0 -8.1214 -4297.036 12908.758)" gradientUnits="userSpaceOnUse"><stop offset="0" stop-color="#fff"/><stop offset="1" stop-color="#fff" stop-opacity="0"/></radialGradient><path class="st31" d="M733 730.4c-8.4 30.7 102.6 72.5 94.3 93.7C809 870.8 708.8 839 632.1 936.8c-11 14 15.4 64.1 11.9 58.1-3.6-5.9-30.7-47.3-23.7-67.6 21.8-63.8 232.6-87.6 194-118.1-22.2-17.4-102-65.8-81.3-78.8z"/></g></g><path class="st32" d="M982.8 793.6c0 2.8-5.4 5-12.2 5s-12.2-2.3-12.2-5.1 5.4-5 12.2-5 12.2 2.3 12.2 5.1zm-81.2 93.1c0 2.8-3.5 5-7.7 5-4.3 0-7.7-2.3-7.7-5.1s3.5-5 7.7-5c4.2.1 7.7 2.3 7.7 5.1zm-615.3-4.4c0 2.8-6.1 5-13.6 5s-13.6-2.3-13.6-5c0-2.8 6.1-5 13.6-5s13.6 2.2 13.6 5z"/><linearGradient id="SVGID_22_" gradientUnits="userSpaceOnUse" x1="684.331" y1="1602.638" x2="688.787" y2="1599.097" gradientTransform="matrix(9.6864 0 0 -9.6834 -6413.005 16207.014)"><stop offset="0" stop-color="#fff"/><stop offset="1" stop-color="#fff" stop-opacity="0"/></linearGradient><path class="st33" d="M278.6 660.4c-69.5 43-177.6 58.6-59.3 87.2-14.1-31.4 30.5-27.9 59.3-87.2z"/><g class="st34"><linearGradient id="SVGID_23_" gradientUnits="userSpaceOnUse" x1="620.094" y1="1644.71" x2="592.982" y2="1717.71" gradientTransform="matrix(4.7299 0 0 -4.7284 -2127.702 8620.596)"><stop offset="0" stop-color="#729fcf"/><stop offset="1" stop-color="#729fcf" stop-opacity="0"/></linearGradient><path class="st35" d="M525.4 1051.9s107.2-10.1 132-41c14.5-18.1-57.7-39.2-42.1-57 58.6-66.7 107.9-63.9 175.8-91.9 68-27.9 42.9-41.6 20.9-53.9-37.6-21-121.4-43.4-93.7-93.2 27.9-50.2 272.2-119.8 272.2-119.8 74-25.3 64.7-71 28.5-109.2L800.7 268.8s10.8 205.9-33.2 294.3C713 672.2 423.2 794 544.4 807.5c42.7 4.7 63.2 19.3 80.7 52.2 35.9 67.7-99.7 192.2-99.7 192.2z"/></g></g></svg>